<?xml version="1.0" encoding="utf-8"?>
<svg version="1.2" baseProfile="tiny-ps" xmlns="http://www.w3.org/2000/svg" xmlns:xlink="http://www.w3.org/1999/xlink"
  viewBox="0 0 880 253" xml:space="preserve">>
  <title>ShipThis</title>
  <path
    d="M347.855 45.3626C347.893 42.6801 345.784 40.5039 343.143 40.5019L247.52 40.4294C221.114 40.4094 199.398 62.1393 199.015 88.9644C198.977 91.6469 201.086 93.8232 203.727 93.8252L299.35 93.8976C325.756 93.9176 347.472 72.1877 347.855 45.3626Z"
    fill="#1B3050" />
  <path
    d="M320.849 98.6761C334.677 98.6865 345.724 110.083 345.524 124.13C345.324 138.178 333.952 149.557 320.124 149.547L302.729 149.533L302.553 161.9C302.17 188.725 280.453 210.455 254.048 210.435C251.407 210.433 249.298 208.257 249.336 205.575L250.029 157.003C250.066 154.454 250.277 151.947 250.652 149.494L202.702 149.458C200.188 149.456 198.179 147.384 198.216 144.83C198.58 119.289 219.256 98.5991 244.398 98.6182L320.849 98.6761Z"
    fill="#1B3050" />
  <path
    d="M40.0005 87.019C39.9636 89.6008 41.9939 91.6952 44.5353 91.6971L169.466 91.7917C181.794 91.8011 191.932 81.6563 192.111 69.1327C192.338 53.2573 179.853 40.3782 164.226 40.3664L86.683 40.3076C61.2696 40.2884 40.3691 61.2018 40.0005 87.019Z"
    fill="#1B3050" />
  <path
    d="M190.777 162.567C190.816 159.801 188.641 157.557 185.918 157.555L102.759 157.492C75.5305 157.472 53.1371 179.879 52.7422 207.54C52.7027 210.306 54.878 212.55 57.6009 212.552L140.76 212.615C167.989 212.636 190.382 190.229 190.777 162.567Z"
    fill="#1B3050" />
  <path
    d="M41.4888 101.435C41.5622 98.8535 43.6813 96.7925 46.2218 96.8316L147.427 98.3881C172.832 98.7788 192.832 120.022 192.098 145.836C192.025 148.418 189.906 150.479 187.365 150.44L86.1601 148.883C60.7546 148.493 40.7545 127.249 41.4888 101.435Z"
    fill="#1B3050" />
  <path
    d="M430.692 170.36C426.434 170.36 422.474 169.791 418.813 168.652C415.227 167.513 411.94 165.805 408.951 163.528C406.037 161.175 403.422 158.29 401.106 154.874L409.399 145.195C413.06 150.509 416.572 154.191 419.934 156.24C423.296 158.29 427.293 159.315 431.925 159.315C434.764 159.315 437.342 158.859 439.658 157.948C441.974 157.037 443.804 155.785 445.149 154.191C446.494 152.597 447.166 150.775 447.166 148.725C447.166 147.359 446.942 146.068 446.494 144.854C446.046 143.639 445.336 142.538 444.365 141.551C443.468 140.565 442.273 139.654 440.778 138.819C439.359 137.984 437.678 137.262 435.735 136.655C433.793 135.972 431.552 135.403 429.011 134.947C424.977 134.112 421.465 133.011 418.477 131.645C415.488 130.279 412.985 128.571 410.968 126.521C408.951 124.471 407.457 122.156 406.486 119.575C405.514 116.918 405.029 113.958 405.029 110.693C405.029 107.505 405.701 104.545 407.046 101.812C408.465 99.0789 410.371 96.7256 412.761 94.7519C415.227 92.7023 418.103 91.1461 421.391 90.0833C424.678 88.9447 428.227 88.3753 432.037 88.3753C436.072 88.3753 439.77 88.9067 443.132 89.9695C446.494 91.0322 449.483 92.6264 452.097 94.7519C454.712 96.8015 456.879 99.3446 458.597 102.381L450.08 110.921C448.586 108.416 446.905 106.328 445.037 104.658C443.169 102.912 441.115 101.622 438.873 100.787C436.632 99.8759 434.241 99.4205 431.701 99.4205C428.787 99.4205 426.247 99.8759 424.08 100.787C421.914 101.698 420.195 102.988 418.925 104.658C417.73 106.253 417.132 108.15 417.132 110.352C417.132 111.946 417.431 113.426 418.029 114.793C418.626 116.083 419.523 117.26 420.718 118.323C421.988 119.309 423.669 120.22 425.761 121.055C427.853 121.814 430.356 122.498 433.27 123.105C437.379 124.016 441.04 125.193 444.253 126.635C447.465 128.001 450.192 129.633 452.434 131.531C454.675 133.429 456.356 135.554 457.477 137.908C458.672 140.261 459.27 142.804 459.27 145.537C459.27 150.623 458.112 155.026 455.796 158.746C453.48 162.465 450.192 165.35 445.934 167.399C441.675 169.373 436.595 170.36 430.692 170.36Z"
    fill="#1B3050" />
  <path
    d="M473.505 169.221V84.9593H485.048V121.739L483.031 123.105C483.778 120.448 485.235 118.019 487.402 115.817C489.568 113.54 492.146 111.718 495.134 110.352C498.123 108.909 501.186 108.188 504.324 108.188C508.807 108.188 512.542 109.099 515.531 110.921C518.519 112.667 520.761 115.362 522.255 119.006C523.749 122.649 524.496 127.242 524.496 132.784V169.221H512.953V133.581C512.953 130.165 512.505 127.356 511.608 125.155C510.712 122.877 509.33 121.245 507.462 120.258C505.594 119.195 503.278 118.74 500.514 118.892C498.272 118.892 496.218 119.271 494.35 120.031C492.482 120.714 490.838 121.701 489.419 122.991C488.074 124.282 486.991 125.8 486.169 127.546C485.422 129.216 485.048 131.038 485.048 133.011V169.221H479.333C478.361 169.221 477.39 169.221 476.419 169.221C475.448 169.221 474.476 169.221 473.505 169.221Z"
    fill="#1B3050" />
  <path
    d="M542.061 169.221V109.441H553.604V169.221H542.061ZM547.664 96.2322C545.198 96.2322 543.293 95.5869 541.948 94.2964C540.604 93.0059 539.931 91.1841 539.931 88.8308C539.931 86.6294 540.604 84.8454 541.948 83.479C543.368 82.1126 545.273 81.4294 547.664 81.4294C550.129 81.4294 552.035 82.0746 553.379 83.3652C554.724 84.6556 555.397 86.4775 555.397 88.8308C555.397 91.0322 554.687 92.8162 553.267 94.1826C551.923 95.549 550.055 96.2322 547.664 96.2322Z"
    fill="#1B3050" />
  <path
    d="M571.346 194.272V109.441H583.001V123.105L581.208 122.08C581.657 119.803 582.927 117.639 585.019 115.59C587.111 113.464 589.651 111.756 592.639 110.466C595.703 109.099 598.84 108.416 602.053 108.416C607.358 108.416 612.065 109.744 616.174 112.401C620.283 115.058 623.533 118.702 625.924 123.333C628.314 127.963 629.51 133.277 629.51 139.274C629.51 145.195 628.314 150.509 625.924 155.216C623.608 159.846 620.395 163.528 616.286 166.261C612.177 168.918 607.544 170.246 602.389 170.246C598.952 170.246 595.628 169.563 592.415 168.197C589.203 166.754 586.476 164.932 584.234 162.731C581.993 160.529 580.611 158.252 580.088 155.899L583.001 154.305V194.272H571.346ZM600.484 159.429C603.921 159.429 606.984 158.556 609.674 156.81C612.363 155.064 614.493 152.673 616.062 149.636C617.631 146.6 618.415 143.146 618.415 139.274C618.415 135.403 617.631 131.987 616.062 129.026C614.567 125.99 612.475 123.598 609.786 121.852C607.096 120.106 603.996 119.233 600.484 119.233C596.973 119.233 593.872 120.106 591.182 121.852C588.493 123.522 586.363 125.876 584.795 128.912C583.226 131.949 582.441 135.403 582.441 139.274C582.441 143.146 583.226 146.6 584.795 149.636C586.363 152.673 588.493 155.064 591.182 156.81C593.872 158.556 596.973 159.429 600.484 159.429Z"
    fill="#1B3050" />
  <path d="M654.502 169.221V101.356H632.537V89.514H689.243V101.356H666.605V169.221H654.502Z" fill="#1B3050" />
  <path
    d="M701.254 169.221V84.9593H712.797V121.739L710.78 123.105C711.527 120.448 712.984 118.019 715.15 115.817C717.317 113.54 719.895 111.718 722.883 110.352C725.872 108.909 728.935 108.188 732.073 108.188C736.555 108.188 740.291 109.099 743.28 110.921C746.268 112.667 748.509 115.362 750.004 119.006C751.498 122.649 752.245 127.242 752.245 132.784V169.221H740.702V133.581C740.702 130.165 740.254 127.356 739.357 125.155C738.461 122.877 737.078 121.245 735.211 120.258C733.343 119.195 731.027 118.74 728.262 118.892C726.021 118.892 723.966 119.271 722.099 120.031C720.231 120.714 718.587 121.701 717.168 122.991C715.823 124.282 714.739 125.8 713.918 127.546C713.171 129.216 712.797 131.038 712.797 133.011V169.221H707.081C706.11 169.221 705.139 169.221 704.168 169.221C703.196 169.221 702.225 169.221 701.254 169.221Z"
    fill="#1B3050" />
  <path
    d="M769.809 169.221V109.441H781.352V169.221H769.809ZM775.413 96.2322C772.947 96.2322 771.042 95.5869 769.697 94.2964C768.352 93.0059 767.68 91.1841 767.68 88.8308C767.68 86.6294 768.352 84.8454 769.697 83.479C771.117 82.1126 773.022 81.4294 775.413 81.4294C777.878 81.4294 779.783 82.0746 781.128 83.3652C782.473 84.6556 783.145 86.4775 783.145 88.8308C783.145 91.0322 782.436 92.8162 781.016 94.1826C779.671 95.549 777.803 96.2322 775.413 96.2322Z"
    fill="#1B3050" />
  <path
    d="M818.707 170.36C813.776 170.36 809.331 169.487 805.371 167.741C801.411 165.995 798.124 163.414 795.509 159.998L803.354 153.166C805.595 155.823 808.023 157.759 810.638 158.973C813.328 160.112 816.354 160.681 819.716 160.681C821.06 160.681 822.293 160.529 823.414 160.226C824.609 159.846 825.618 159.315 826.44 158.632C827.336 157.948 828.009 157.151 828.457 156.24C828.905 155.254 829.129 154.191 829.129 153.052C829.129 151.078 828.42 149.484 827 148.27C826.253 147.738 825.058 147.169 823.414 146.562C821.845 145.878 819.79 145.195 817.25 144.512C812.917 143.373 809.368 142.083 806.604 140.641C803.839 139.198 801.71 137.566 800.216 135.744C799.095 134.302 798.273 132.746 797.75 131.076C797.227 129.33 796.966 127.432 796.966 125.382C796.966 122.877 797.489 120.6 798.535 118.55C799.655 116.425 801.15 114.603 803.017 113.085C804.96 111.49 807.201 110.276 809.742 109.441C812.356 108.606 815.121 108.188 818.035 108.188C820.799 108.188 823.526 108.568 826.216 109.327C828.98 110.086 831.52 111.187 833.836 112.629C836.152 114.071 838.095 115.779 839.664 117.753L833.052 125.155C831.632 123.712 830.063 122.46 828.345 121.397C826.701 120.258 825.02 119.385 823.302 118.778C821.583 118.171 820.014 117.867 818.595 117.867C817.026 117.867 815.606 118.019 814.336 118.323C813.066 118.626 811.983 119.082 811.086 119.689C810.265 120.296 809.629 121.055 809.181 121.966C808.733 122.877 808.509 123.902 808.509 125.041C808.583 126.028 808.808 126.976 809.181 127.887C809.629 128.722 810.227 129.444 810.974 130.051C811.796 130.658 813.029 131.303 814.673 131.987C816.316 132.67 818.408 133.315 820.948 133.922C824.684 134.909 827.747 136.01 830.138 137.225C832.603 138.363 834.546 139.692 835.965 141.21C837.46 142.652 838.506 144.322 839.104 146.22C839.701 148.118 840 150.243 840 152.597C840 156.013 839.029 159.087 837.086 161.82C835.218 164.477 832.678 166.564 829.466 168.083C826.253 169.601 822.667 170.36 818.707 170.36Z"
    fill="#1B3050" />
</svg>