<?xml version="1.0" encoding="utf-8"?>
<svg version="1.2" baseProfile="tiny-ps" xmlns="http://www.w3.org/2000/svg" xmlns:xlink="http://www.w3.org/1999/xlink"
  viewBox="0 0 880 253" xml:space="preserve">
  <path
    d="M347.855 45.055C347.893 42.3725 345.784 40.1962 343.143 40.1942L247.52 40.1218C221.114 40.1018 199.398 61.8317 199.015 88.6568C198.977 91.3393 201.086 93.5155 203.727 93.5175L299.35 93.59C325.756 93.6099 347.472 71.8801 347.855 45.055Z"
    fill="#FE8A8B" />
  <path
    d="M320.849 98.3684C334.677 98.3789 345.724 109.775 345.524 123.823C345.324 137.87 333.952 149.249 320.124 149.239L302.729 149.226L302.553 161.593C302.17 188.418 280.453 210.148 254.048 210.128C251.407 210.126 249.298 207.949 249.336 205.267L250.029 156.696C250.066 154.147 250.277 151.64 250.652 149.186L202.702 149.15C200.188 149.148 198.179 147.076 198.216 144.522C198.58 118.981 219.256 98.2915 244.398 98.3105L320.849 98.3684Z"
    fill="white" />
  <path
    d="M40.0005 86.7114C39.9636 89.2931 41.9939 91.3876 44.5353 91.3895L169.466 91.4841C181.794 91.4935 191.932 81.3487 192.111 68.8251C192.338 52.9497 179.853 40.0706 164.226 40.0587L86.683 40C61.2696 39.9808 40.3691 60.8942 40.0005 86.7114Z"
    fill="#FFA55A" />
  <path
    d="M190.777 162.26C190.816 159.494 188.641 157.25 185.918 157.247L102.759 157.185C75.5305 157.164 53.1371 179.571 52.7422 207.232C52.7027 209.999 54.878 212.243 57.6009 212.245L140.76 212.308C167.989 212.328 190.382 189.921 190.777 162.26Z"
    fill="white" />
  <path
    d="M41.4888 101.127C41.5622 98.5459 43.6813 96.4849 46.2218 96.5239L147.427 98.0805C172.832 98.4712 192.832 119.715 192.098 145.529C192.025 148.11 189.906 150.171 187.365 150.132L86.1601 148.576C60.7546 148.185 40.7545 126.942 41.4888 101.127Z"
    fill="white" />
  <path
    d="M430.692 170.052C426.434 170.052 422.474 169.483 418.813 168.344C415.227 167.206 411.94 165.498 408.951 163.22C406.037 160.867 403.422 157.982 401.106 154.566L409.399 144.888C413.06 150.201 416.572 153.883 419.934 155.933C423.296 157.982 427.293 159.007 431.925 159.007C434.764 159.007 437.342 158.552 439.658 157.641C441.974 156.73 443.804 155.477 445.149 153.883C446.494 152.289 447.166 150.467 447.166 148.418C447.166 147.051 446.942 145.761 446.494 144.546C446.046 143.331 445.336 142.231 444.365 141.244C443.468 140.257 442.273 139.346 440.778 138.511C439.359 137.676 437.678 136.955 435.735 136.348C433.793 135.664 431.552 135.095 429.011 134.64C424.977 133.805 421.465 132.704 418.477 131.337C415.488 129.971 412.985 128.263 410.968 126.213C408.951 124.164 407.457 121.848 406.486 119.267C405.514 116.611 405.029 113.65 405.029 110.386C405.029 107.197 405.701 104.237 407.046 101.504C408.465 98.7713 410.371 96.418 412.761 94.4443C415.227 92.3947 418.103 90.8385 421.391 89.7757C424.678 88.637 428.227 88.0677 432.037 88.0677C436.072 88.0677 439.77 88.5991 443.132 89.6618C446.494 90.7246 449.483 92.3188 452.097 94.4443C454.712 96.4939 456.879 99.0369 458.597 102.073L450.08 110.613C448.586 108.108 446.905 106.021 445.037 104.351C443.169 102.605 441.115 101.314 438.873 100.479C436.632 99.5683 434.241 99.1129 431.701 99.1129C428.787 99.1129 426.247 99.5683 424.08 100.479C421.914 101.39 420.195 102.681 418.925 104.351C417.73 105.945 417.132 107.843 417.132 110.044C417.132 111.638 417.431 113.119 418.029 114.485C418.626 115.775 419.523 116.952 420.718 118.015C421.988 119.002 423.669 119.913 425.761 120.748C427.853 121.507 430.356 122.19 433.27 122.797C437.379 123.708 441.04 124.885 444.253 126.327C447.465 127.694 450.192 129.326 452.434 131.224C454.675 133.121 456.356 135.247 457.477 137.6C458.672 139.953 459.27 142.496 459.27 145.229C459.27 150.315 458.112 154.718 455.796 158.438C453.48 162.158 450.192 165.042 445.934 167.092C441.675 169.066 436.595 170.052 430.692 170.052Z"
    fill="white" />
  <path
    d="M473.505 168.914V84.6517H485.048V121.431L483.031 122.797C483.778 120.14 485.235 117.711 487.402 115.51C489.568 113.232 492.146 111.411 495.134 110.044C498.123 108.602 501.186 107.881 504.324 107.881C508.807 107.881 512.542 108.792 515.531 110.613C518.519 112.359 520.761 115.054 522.255 118.698C523.749 122.342 524.496 126.935 524.496 132.476V168.914H512.953V133.273C512.953 129.857 512.505 127.048 511.608 124.847C510.712 122.57 509.33 120.937 507.462 119.951C505.594 118.888 503.278 118.432 500.514 118.584C498.272 118.584 496.218 118.964 494.35 119.723C492.482 120.406 490.838 121.393 489.419 122.683C488.074 123.974 486.991 125.492 486.169 127.238C485.422 128.908 485.048 130.73 485.048 132.704V168.914H479.333C478.361 168.914 477.39 168.914 476.419 168.914C475.448 168.914 474.476 168.914 473.505 168.914Z"
    fill="white" />
  <path
    d="M542.061 168.914V109.133H553.604V168.914H542.061ZM547.664 95.9246C545.198 95.9246 543.293 95.2793 541.948 93.9888C540.604 92.6983 539.931 90.8764 539.931 88.5232C539.931 86.3217 540.604 84.5378 541.948 83.1714C543.368 81.805 545.273 81.1218 547.664 81.1218C550.129 81.1218 552.035 81.767 553.379 83.0575C554.724 84.348 555.397 86.1699 555.397 88.5232C555.397 90.7246 554.687 92.5085 553.267 93.8749C551.923 95.2414 550.055 95.9246 547.664 95.9246Z"
    fill="white" />
  <path
    d="M571.346 193.965V109.133H583.001V122.797L581.208 121.773C581.657 119.495 582.927 117.332 585.019 115.282C587.111 113.157 589.651 111.449 592.639 110.158C595.702 108.792 598.84 108.108 602.053 108.108C607.358 108.108 612.065 109.437 616.174 112.094C620.283 114.751 623.533 118.394 625.924 123.025C628.314 127.656 629.51 132.969 629.51 138.967C629.51 144.888 628.314 150.201 625.924 154.908C623.608 159.539 620.395 163.22 616.286 165.953C612.177 168.61 607.544 169.939 602.389 169.939C598.953 169.939 595.628 169.255 592.415 167.889C589.203 166.447 586.476 164.625 584.234 162.423C581.993 160.222 580.611 157.944 580.088 155.591L583.001 153.997V193.965H571.346ZM600.484 159.121C603.921 159.121 606.984 158.248 609.674 156.502C612.363 154.756 614.493 152.365 616.062 149.328C617.631 146.292 618.415 142.838 618.415 138.967C618.415 135.095 617.631 131.679 616.062 128.718C614.567 125.682 612.475 123.291 609.786 121.545C607.096 119.799 603.996 118.926 600.484 118.926C596.973 118.926 593.872 119.799 591.182 121.545C588.493 123.215 586.363 125.568 584.794 128.605C583.226 131.641 582.441 135.095 582.441 138.967C582.441 142.838 583.226 146.292 584.794 149.328C586.363 152.365 588.493 154.756 591.182 156.502C593.872 158.248 596.973 159.121 600.484 159.121Z"
    fill="white" />
  <path d="M654.502 168.914V101.049H632.537V89.2064H689.243V101.049H666.605V168.914H654.502Z" fill="white" />
  <path
    d="M701.254 168.914V84.6517H712.797V121.431L710.78 122.797C711.527 120.14 712.984 117.711 715.15 115.51C717.317 113.232 719.895 111.411 722.883 110.044C725.872 108.602 728.935 107.881 732.073 107.881C736.555 107.881 740.291 108.792 743.28 110.613C746.268 112.359 748.509 115.054 750.004 118.698C751.498 122.342 752.245 126.935 752.245 132.476V168.914H740.702V133.273C740.702 129.857 740.254 127.048 739.357 124.847C738.461 122.57 737.079 120.937 735.211 119.951C733.343 118.888 731.027 118.432 728.262 118.584C726.021 118.584 723.966 118.964 722.099 119.723C720.231 120.406 718.587 121.393 717.168 122.683C715.823 123.974 714.739 125.492 713.918 127.238C713.17 128.908 712.797 130.73 712.797 132.704V168.914H707.081C706.11 168.914 705.139 168.914 704.168 168.914C703.196 168.914 702.225 168.914 701.254 168.914Z"
    fill="white" />
  <path
    d="M769.809 168.914V109.133H781.352V168.914H769.809ZM775.413 95.9246C772.947 95.9246 771.042 95.2793 769.697 93.9888C768.352 92.6983 767.68 90.8764 767.68 88.5232C767.68 86.3217 768.352 84.5378 769.697 83.1714C771.117 81.805 773.022 81.1218 775.413 81.1218C777.878 81.1218 779.783 81.767 781.128 83.0575C782.473 84.348 783.145 86.1699 783.145 88.5232C783.145 90.7246 782.436 92.5085 781.016 93.8749C779.671 95.2414 777.803 95.9246 775.413 95.9246Z"
    fill="white" />
  <path
    d="M818.707 170.052C813.776 170.052 809.331 169.179 805.371 167.433C801.411 165.687 798.124 163.106 795.509 159.69L803.354 152.858C805.595 155.515 808.023 157.451 810.638 158.666C813.328 159.804 816.354 160.374 819.716 160.374C821.06 160.374 822.293 160.222 823.414 159.918C824.609 159.539 825.618 159.007 826.44 158.324C827.336 157.641 828.009 156.844 828.457 155.933C828.905 154.946 829.129 153.883 829.129 152.745C829.129 150.771 828.42 149.177 827 147.962C826.253 147.431 825.058 146.861 823.414 146.254C821.845 145.571 819.79 144.888 817.25 144.204C812.917 143.066 809.368 141.775 806.604 140.333C803.839 138.891 801.71 137.258 800.216 135.437C799.095 133.994 798.273 132.438 797.75 130.768C797.227 129.022 796.966 127.124 796.966 125.075C796.966 122.57 797.489 120.292 798.535 118.243C799.655 116.117 801.15 114.295 803.017 112.777C804.96 111.183 807.201 109.968 809.742 109.133C812.356 108.298 815.121 107.881 818.035 107.881C820.799 107.881 823.526 108.26 826.216 109.019C828.98 109.778 831.52 110.879 833.836 112.322C836.152 113.764 838.095 115.472 839.664 117.446L833.052 124.847C831.632 123.405 830.063 122.152 828.345 121.089C826.701 119.951 825.02 119.078 823.302 118.47C821.583 117.863 820.014 117.559 818.595 117.559C817.026 117.559 815.606 117.711 814.336 118.015C813.066 118.319 811.983 118.774 811.086 119.381C810.265 119.989 809.629 120.748 809.181 121.659C808.733 122.57 808.509 123.594 808.509 124.733C808.583 125.72 808.808 126.669 809.181 127.58C809.629 128.415 810.227 129.136 810.974 129.743C811.796 130.351 813.029 130.996 814.673 131.679C816.316 132.362 818.408 133.007 820.948 133.615C824.684 134.602 827.747 135.702 830.138 136.917C832.603 138.056 834.546 139.384 835.966 140.902C837.46 142.345 838.506 144.015 839.104 145.912C839.701 147.81 840 149.936 840 152.289C840 155.705 839.029 158.779 837.086 161.512C835.218 164.169 832.678 166.257 829.466 167.775C826.253 169.293 822.667 170.052 818.707 170.052Z"
    fill="white" />

</svg>